<svg width="512" height="512" xmlns="http://www.w3.org/2000/svg">

 <g>
  <title>background</title>
  <rect fill="#ffffff" id="canvas_background" height="514" width="514" y="-1" x="-1"/>
 </g>
 <g>
  <title fill="#240041">Layer 1</title>
  <path fill="#240041" id="XMLID_3372_" d="m134,210c-20.5,0 -28.9,-19.2 -30.9,-31.3c-5.4,-3.5 -19.5,-13.9 -30.2,-32.5c-6.1,-10.6 -4.6,-26 4.4,-45.9c3.6,-7.9 7.7,-15 10.6,-19.6c-10,-3.1 -27.1,-10.7 -30.8,-27.6l-0.8,-3.4c-5.1,-23.1 -8,-38.7 -2.2,-46c2,-2.4 4.7,-3.7 7.9,-3.7c12.2,0 38.2,12.9 44.4,24.1c0.6,1.1 1.5,2.7 2.5,4.7c14.7,27.4 21.5,36.4 24.7,38.8c2.2,-3.2 4.9,-13.2 6.6,-19.4c2.7,-9.9 5.3,-19.3 9,-24.5c8.8,-12.5 39.8,-23.7 48.8,-23.7c2.2,0 4.3,0.9 5.9,2.6c4.6,4.9 4.2,15.3 3,31.9c-0.3,4.4 -0.6,8.6 -0.6,11.8c0,11.7 -20.9,25.5 -32.2,32.1c3.1,5 8.2,13.7 13.1,23.4c10.7,21.2 14.4,35.7 11.4,44.3l0,0c-5.6,16.1 -27.3,30.2 -34.4,34.5c-1.8,11.4 -9.8,29.4 -30.2,29.4zm-72.1,-200c-0.3,0.5 -1.6,3 -0.5,12.5c0.9,7.5 2.8,16.4 4.7,25l0.8,3.4c3.7,17 29.7,21.6 30,21.6c1.7,0.3 3.1,1.4 3.8,3c0.7,1.6 0.5,3.4 -0.5,4.8c-8.2,11.6 -27.6,45 -18.5,60.8c11.8,20.4 28.5,30 28.7,30.1c1.4,0.8 2.4,2.2 2.5,3.9c0.1,1 2.8,24.8 21.3,24.8c18.5,0 20.5,-22 20.6,-23c0.1,-1.7 1.1,-3.2 2.6,-4c7.4,-4.1 27.6,-17.7 32,-30.4l0,0c3.6,-10.4 -13.2,-43.3 -26.3,-63.5c-0.8,-1.2 -1,-2.6 -0.7,-4c0.3,-1.4 1.2,-2.5 2.5,-3.2c15,-8.1 31.7,-20.7 31.7,-25.9c0,-3.5 0.3,-7.8 0.6,-12.5c0.5,-7 1.4,-19.7 0,-23.7c-8.1,0.9 -33.4,10.7 -39.6,19.3c-2.7,3.8 -5.3,13.1 -7.5,21.3c-4.6,16.3 -7.7,27.7 -16.1,27.7c-7.5,0 -16,-11.2 -33.9,-44.5c-1,-1.9 -1.8,-3.4 -2.5,-4.5c-3.9,-7.2 -26.2,-19 -35.7,-19c0.1,0 0,0 0,0z"/>
  <path fill="#240041" id="XMLID_3371_" d="m101,77.6l-10,-0.3c0.5,-15.6 -0.7,-34.7 -3.4,-38.4c-3.1,-4.3 -21.6,-14.1 -33.7,-19.7l4.2,-9.1c5.3,2.4 31.8,15 37.6,22.9c5.9,8.1 5.5,36.2 5.3,44.6z"/>
  <path fill="#240041" id="XMLID_3370_" d="m162,76.6c-0.1,-3.6 -0.6,-35.2 3.8,-45c1.8,-4.1 6.3,-8 14.1,-12.3l4.8,8.7c-8.1,4.5 -9.6,7.1 -9.8,7.6c-2.6,5.8 -3.2,28 -2.9,40.7l-10,0.3z"/>
  <path fill="#240041" id="XMLID_3369_" d="m104.9,137.2c-4.9,0 -7.1,-4.8 -7.1,-15.2c0,-10.4 2.3,-15.2 7.1,-15.2s7.1,4.8 7.1,15.2c0,10.4 -2.3,15.2 -7.1,15.2z"/>
  <path fill="#240041" id="XMLID_3368_" d="m161.9,137.2c-4.9,0 -7.1,-4.8 -7.1,-15.2c0,-10.4 2.3,-15.2 7.1,-15.2s7.1,4.8 7.1,15.2c0.1,10.4 -2.2,15.2 -7.1,15.2z"/>
  <path fill="#240041" id="XMLID_3367_" d="m102.7,119l-5,-0.5l-4.9,-0.4c0.4,-4.5 4.2,-11.3 12.2,-11.3l0,10c-1,-0.1 -2,-0.1 -2.3,2.2z"/>
  <path fill="#240041" id="XMLID_3366_" d="m164.1,118.8c-0.2,-2.1 -2.1,-2.1 -2.1,-2.1l0,-10c8,0 11.7,6.8 12.1,11.4l-10,0.7z"/>
  <path fill="#240041" id="XMLID_3365_" d="m133.8,188c-1.5,0 -3,-0.7 -4,-2l-8.5,-11c-1.2,-1.5 -1.4,-3.5 -0.5,-5.2c0.8,-1.7 2.6,-2.8 4.5,-2.8l16.7,0c1.9,0 3.6,1.1 4.5,2.7c0.8,1.7 0.7,3.7 -0.5,5.2l-8.2,11c-0.9,1.3 -2.4,2.1 -4,2.1c0.1,0 0,0 0,0z"/>
  <path fill="#240041" id="XMLID_3364_" d="m225.5,512c0,0 0,0 0,0l-149.5,-0.1c-1.6,0 -3.2,-0.8 -4.1,-2.2c-0.9,-1.4 -1.1,-3.1 -0.5,-4.6c0.4,-1.1 10.6,-26.8 29.1,-32.9c14.9,-5 70.6,-2.5 89.1,-1.5c-0.1,-9.6 -0.5,-30.3 -3.4,-44.7c-0.6,-3 -1.8,-7.1 -3.1,-11.9c-7.1,-25 -20.4,-71.5 11.9,-102c10.3,-9.7 21.4,-13.8 33,-12.2c25,3.4 42.7,32.4 43.4,33.6l-8.6,5.1c-0.2,-0.3 -16,-26.1 -36.2,-28.9c-8.6,-1.2 -16.7,2 -24.7,9.6c-27.9,26.4 -16.2,67.5 -9.2,92c1.4,5 2.6,9.2 3.3,12.7c4.1,20.3 3.6,50.8 3.6,52.1c0,1.4 -0.6,2.7 -1.6,3.6c-1,0.9 -2.3,1.4 -3.7,1.3c-20.9,-1.2 -77.8,-3.5 -90.6,0.8c-8.6,2.9 -15.6,12.7 -19.7,20.3l138.7,0.1l7.4,-13.1c-1.4,-4 -4.4,-12.8 -6.9,-22.2c-6.4,-24.6 -3.4,-31.3 -0.1,-34.5c9,-8.5 30.2,-10.2 32.6,-10.3c1.8,-0.1 3.6,0.8 4.6,2.3c49.5,78.8 181.1,78 237.3,77.7c1.2,0 2.5,0 3.6,0c-1.9,-5.3 -6.6,-9.2 -12.5,-9.8c-21.4,-2.2 -62.9,-7.5 -100.6,-18.8c-46.4,-13.9 -74,-32.6 -81.8,-55.8c-2.9,-8.7 1.8,-18.4 7.2,-29.5c9.7,-19.9 23,-47.1 3.1,-85.8c-15.5,-30 -44.8,-49.3 -73.1,-67.9c-29.5,-19.4 -57.5,-37.8 -70.6,-67.3l9.1,-4.1c12,26.8 38.7,44.4 67,63c29.4,19.3 59.8,39.4 76.5,71.7c22.3,43.2 7.1,74.2 -3,94.8c-4.5,9.2 -8.4,17.1 -6.8,21.9c16.2,48.1 137.2,64.1 173.9,67.8c12.7,1.3 22.4,11.9 22.4,24.7c0,2.8 -2.2,5 -5,5c-2.9,0 -6,0 -9.4,0c-57.3,0.3 -190.5,1.1 -244.1,-79.8c-7.8,0.9 -19.1,3.3 -23.5,7.3c-0.2,0.4 -2.4,5 3.1,25.7c3.1,11.7 7.1,22.4 7.1,22.5c0.5,1.4 0.4,2.9 -0.3,4.2l-10,17.6c-0.9,1.5 -2.6,2.5 -4.4,2.5z"/>
  <path fill="#240041" id="XMLID_3360_" d="m77.3,381.6c-3.5,0 -6.3,-1.3 -8.6,-3.9c-8.9,-10.4 -1.5,-23.9 5.1,-31.3c0.5,-5.5 2.2,-22.3 4.4,-29.9c2.2,-7.5 10.5,-15.2 15,-18.9c-2.9,-10.2 -7.6,-31.7 0.7,-40c2.4,-2.4 6.7,-4.7 14,-2.4c15.1,4.8 15.5,18.8 14.1,29.2c0.1,-0.3 0.2,-0.6 0.3,-0.8c1.9,-5.2 3.5,-9.7 6,-12.2c7.1,-7.1 31.3,-7.5 31.5,-7.5c2.9,0 5.5,1.7 7,4.6c3.8,7.3 1.6,24.3 -2.9,30.8c-3.7,5.3 -14.2,9.3 -22,11.6c3.8,5.7 8.2,14.6 7.9,25.3c-0.2,6.3 -2.4,11.4 -6.7,15.3c-7.8,7.1 -19.6,7.3 -24.5,7c-2.2,0.3 -9,5.3 -13.5,8.6c-5.7,4.1 -12.1,8.8 -17.8,11.7c-3.7,1.8 -7.1,2.8 -10,2.8zm4.9,-29.5c-0.1,0.1 -11.7,12.4 -5.9,19.1c0.7,0.8 3.4,0.3 6.8,-1.4c5,-2.4 11,-6.8 16.3,-10.7c9.5,-6.9 15,-10.9 19.9,-10.6c5.7,0.3 13.2,-0.7 17.3,-4.4c2.2,-2 3.3,-4.7 3.4,-8.2c0.4,-13.6 -9.9,-24.3 -10,-24.4c-1.3,-1.3 -1.8,-3.2 -1.2,-4.9s1.9,-3.1 3.7,-3.5c9.7,-2.2 21.5,-6.5 23.5,-9.5c2.7,-3.9 3.8,-15.6 2.6,-19.6c-8.7,0.2 -20.7,2.3 -23,4.5c-1,1 -2.6,5.5 -3.7,8.5c-3.2,8.9 -6.9,19 -15.4,17.9c-1.8,-0.3 -3.4,-1.2 -4.5,-2.7c-2.3,-3.2 -1.6,-7.6 -0.6,-13.6c2.4,-14 2,-21.2 -6.4,-23.9c-1.1,-0.4 -3.1,-0.8 -3.9,-0.1c-3.4,3.4 -1.3,20.3 2.7,33.3c0.6,2 -0.1,4.3 -1.8,5.5c-4.7,3.5 -12.7,10.8 -14.2,15.8c-1.9,6.6 -3.7,23.7 -4.2,29.7c0,1.2 -0.6,2.3 -1.4,3.2l0,0z"/>
  <rect fill="#240041" y="327" x="101" width="10" id="XMLID_3358_" height="14"/>
  <rect fill="#240041" y="357.3" x="62.6" width="18.3" transform="matrix(0.9578,0.2873,-0.2873,0.9578,107.1176,-5.3389) " id="XMLID_3357_" height="10"/>
  <path fill="#240041" id="XMLID_3356_" d="m144.4,350.3l-6.8,-7.3c18.2,-17.1 17.2,-30.3 17.1,-30.8l9.9,-1.2c0.1,0.7 2.1,18.4 -20.2,39.3z"/>
  <path fill="#240041" id="XMLID_3355_" d="m191,429.9c-51.7,0 -78.5,-19.7 -91.9,-36.2l7.8,-6.3c12.1,14.8 36.5,32.5 84.2,32.5l0,10l-0.1,0z"/>
  <path fill="#240041" id="XMLID_3352_" d="m73.8,349.5l-13.9,-73.7c-0.1,-0.4 -0.1,-0.8 -0.1,-1.1c0.1,-2.3 2.3,-55.7 5,-73.1c2.9,-18.8 25,-39.4 25.9,-40.3l6.8,7.4c-5.7,5.2 -20.9,21.6 -22.8,34.4c-2.4,15.9 -4.6,65.5 -4.8,71.4l13.8,73.1l-9.9,1.9zm23.6,-180.9l-3.4,-3.6l3.4,3.6c0,0 0,0 0,0l0,0z"/>
  <path fill="#240041" id="XMLID_3351_" d="m186.5,323c-1.4,0 -2.7,-0.6 -3.6,-1.6l-12.3,-13c-1.1,-1.2 -1.6,-2.8 -1.3,-4.3l8.5,-46.8l-17.1,-45.5l9.4,-3.5l17.6,46.8c0.3,0.8 0.4,1.8 0.2,2.7l-8.3,45.7l6.8,7.1l10,-11.5l-6.1,-9.3c-0.9,-1.4 -1.1,-3.2 -0.4,-4.8c0.1,-0.3 12.6,-27.9 13.6,-43.7c0.9,-15.3 -12.1,-37.5 -12.2,-37.8l8.6,-5.1c0.6,1 14.7,25.1 13.6,43.4c-0.9,14.9 -10.1,37.2 -13.3,44.7l6.7,10.2c1.2,1.9 1.1,4.3 -0.4,6l-16.2,18.5c-1,1.1 -2.3,1.8 -3.8,1.8c0.1,0 0,0 0,0z"/>
  <rect fill="#240041" y="214.7" x="75.3" width="10" transform="matrix(0.9621,0.2726,-0.2726,0.9621,72.9675,-12.1675) " id="XMLID_3350_" height="83.6"/>
  <path fill="#240041" id="XMLID_3349_" d="m76,512l-71,0c-1.8,0 -3.4,-1 -4.3,-2.5c-0.9,-1.5 -1,-3.4 -0.1,-4.9c0.4,-0.7 9,-17.1 21.1,-28c2.3,-2.1 8.5,-7.8 57.7,-9.5c17,-0.6 33.5,-0.5 41.3,-0.4l3.5,-55.3l10,0.6l-3.8,60c-0.2,2.7 -2.4,4.8 -5.1,4.7c-0.2,0 -22.4,-0.5 -45.6,0.4c-43.2,1.5 -50.3,6.1 -51.2,7c-6,5.5 -11.2,13 -14.6,18l62.1,0l0,9.9z"/>
  <rect fill="#240041" y="443.6" x="138.1" width="51.6" transform="matrix(0.0710764,0.9975,-0.9975,0.0710764,599.6889,253.331) " id="XMLID_3347_" height="10"/>
  <rect fill="#240041" y="492" x="105" width="10" id="XMLID_3001_" height="15"/>
  <rect fill="#240041" y="492" x="33" width="10" id="XMLID_3000_" height="15"/>
 </g>
</svg>