<svg width="92.168" height="92.168" xmlns="http://www.w3.org/2000/svg">

 <g>
  <title>background</title>
  <rect fill="#ffffff" id="canvas_background" height="94.168" width="94.168" y="-1" x="-1"/>
 </g>
 <g>
  <title>Layer 1</title>
  <rect id="svg_1" y="0" x="0" width="92.168" height="92.168" fill-rule="evenodd" fill="none" clip-rule="evenodd"/>
  <path stroke="#ffffff" stroke-opacity="0" id="svg_2" fill-rule="evenodd" fill="#240041" d="m13.226,26.261c4.232,3.978 8.232,4.973 14.608,-0.552c6.409,-5.569 14.896,-6.288 24.056,-0.619c8.1,5.006 14.023,10.277 19.935,15.559c6.166,5.514 11.514,9.813 18.31,7.614c2.077,-0.663 3.028,0.133 0.575,1.503c-2.917,1.624 -8.078,3.039 -11.293,1.801c-10.553,-4.067 -17.404,-8.509 -25.029,-13.757c-1.967,-1.359 -3.724,-1.68 -4.553,-0.453c-0.729,1.083 -1.834,1.879 -2.663,2.409c-1.127,0.729 -0.873,1.669 -0.63,2.962c0.586,3.216 2.995,6.265 4.906,9.216c0.917,1.425 0.917,1.481 -0.077,2.939c-2.917,4.255 -6.288,7.47 -8.022,11.68c-0.586,1.426 -0.63,3.094 0.265,3.514c0.586,0.276 1.879,0.718 -0.022,1.05c-2.707,0.475 -3.956,-3.425 -2.873,-5.492c1.017,-1.945 4.287,-7.757 4.497,-8.111c0.851,-1.403 0.387,-2.983 -0.475,-3.823c-3.558,-3.392 -7.028,-7.58 -9.326,-12.232c-0.365,-0.751 -0.829,-0.962 -1.569,-1.05c-0.995,-0.121 -2.298,-0.354 -3.028,-0.387c-0.873,-0.044 -1.094,0.066 -0.641,1.127c0.42,1.006 1.503,2.221 2.895,2.641c2.055,0.619 1.68,1.481 1.083,1.801c-0.74,0.387 -2.199,0.387 -3.337,-0.331c-2.122,-1.326 -4.033,-3.105 -5.415,-5.205c-0.365,-0.552 -0.486,-0.519 -1.536,-0.486c-5.702,0.166 -9.923,-1.746 -12.851,-4.674c-1.326,-1.326 -6.509,0.011 -8.1,0.497c-2.199,0.674 -3.492,-0.74 -2.663,-2.409c0.718,-1.415 2.807,-2.354 4.42,-3.823c0.939,-0.862 1.525,-2.099 2.464,-2.586c1.403,-0.707 0.928,-1.26 0.354,-2.265c-0.497,-0.862 -0.077,-1.503 -0.442,-2.166c-0.873,-1.613 0.133,-1.525 2.077,0.276c1.315,1.213 2.785,2.616 4.1,3.832l0,0zm28.531,42.675c-0.365,-0.298 -0.674,-0.332 -0.464,0.254c0.144,0.42 0.475,0.829 0.796,1.127c0.817,0.785 0.353,-0.795 -0.332,-1.381l0,0z" clip-rule="evenodd"/>
 </g>
</svg>